<?xml version="1.0" encoding="utf-8"?>
<!-- Generator: Adobe Illustrator 25.0.0, SVG Export Plug-In . SVG Version: 6.00 Build 0)  -->
<svg version="1.1" id="Layer_1" xmlns="http://www.w3.org/2000/svg" xmlns:xlink="http://www.w3.org/1999/xlink" x="0px" y="0px"
	 viewBox="0 0 39 39" style="enable-background:new 0 0 39 39;" xml:space="preserve">
<style type="text/css">
	.st0{fill:#A4B0A0;}
</style>
<desc>Created with Sketch.</desc>
<g>
	<g id="ZeriWaste_1_">
		<path class="st0" d="M19.5,0c-8.9,0-16,7.1-16,16s7.1,16,16,16s16-7.1,16-16S28.4,0,19.5,0z M19.5,31.2c-8.3,0-15.2-6.8-15.2-15.2
			S11.2,0.8,19.5,0.8S34.7,7.6,34.7,16S27.8,31.2,19.5,31.2z"/>
		<g>
			<path class="st0" d="M8.8,23.1C8.9,23.1,8.9,23.1,8.8,23.1c0.6,0.5,1.4,0.6,2.1,0.6c0.7,0,1.4,0,2,0c1,0.1,1.6,0.8,2.2,1.5
				c0.2,0.2,0.3,0.6,0.5,0.9c0,0-0.1,0-0.1,0.1c-0.1-0.1-0.2-0.1-0.2-0.2c-0.8-0.7-1.7-1.2-2.7-1.4c-0.5,0-1-0.1-1.5-0.1
				c-0.4,0-0.6-0.2-1-0.2c-0.1,0-0.1,0-0.2,0l0,0.1c0.3,0.1,0.5,0.2,0.8,0.3c0.6,0.1,1,0.2,1.5,0.2c1.2,0.1,2.2,0.8,3.1,1.6
				c0.3,0.3,0.5,0.6,0.8,1c0.1,0.1,0.1,0.1,0.1,0.1c0.2-0.6,0.2-0.6,0-1.2c-0.1-0.6-0.6-1.1-0.9-1.4c-0.6-0.5-1.4-1-2.1-1.5
				c-0.9-0.7-1.8-1.2-2.3-2.1c-0.7-1-0.9-2.1-1-3.3c-0.1-2,0.5-3.9,1.5-5.6c0.2-0.4,0.7-0.9,1-1c0,0.1,0.1,0.1,0.1,0.2
				c0,0.9,0.4,1.7,1,2.5c0.6,0.7,1.4,1.4,2.1,2c0.7,0.7,1.4,1.3,2.1,2.1c0.7,1.1,1.1,2.3,1.1,3.6c0,1-0.2,2.2-0.6,3.2
				c0,0.1,0,0.1-0.1,0.2c0,0,0,0-0.1,0.1c0-0.2-0.1-0.4,0-0.6c0-1.4-0.3-2.8-0.9-4.1c-0.5-0.8-1-1.5-1.7-2.1c-0.6-0.7-1.2-1.3-1.8-2
				c-0.5-0.5-0.8-1.1-1.1-1.7c0-0.1-0.1-0.1-0.2-0.2c0,0.1,0,0.1,0,0.2c0.2,1.2,0.8,2.1,1.6,3c0.6,0.7,1.3,1.4,1.8,2.3
				c0.9,1.2,1.2,2.7,1.4,4.1c0.1,1.4,0,2.1-0.2,3.5c0,0.2,0,0.4-0.1,0.7c0,0.2-0.2,0.3-0.3,0.3c-0.1,0-0.2-0.1-0.2-0.2
				c-0.5-0.8-0.8-0.8-1.6-0.7c-0.4,0.1-0.8,0.1-1.2,0.2c-1.2,0.2-2.2-0.2-3.1-1.1c-0.7-0.7-1.2-1.6-1.2-2.8
				C8.8,23.4,8.8,23.2,8.8,23.1z"/>
			<g>
				<path class="st0" d="M25.1,3.3H13.2c-0.5,0-0.8,0.3-0.8,0.8v6.7h13.4V4.1C25.8,3.7,25.5,3.3,25.1,3.3z M14.9,8.6
					c0,0.2-0.2,0.5-0.5,0.5C14.2,9,14,8.8,14,8.6V5.7c0-0.2,0.2-0.5,0.5-0.5c0.2,0,0.5,0.2,0.5,0.5V8.6z"/>
				<path class="st0" d="M24.2,27.4v0.9h1.2v-1.8h-6.6c-0.1,0.3-0.2,0.7-0.3,0.8H24.2z"/>
				<g>
					<path class="st0" d="M12.4,11.3c0,0,0.8,1.5,1.3,2c0.2,0.1,0.2,0.2,0.4,0.3v-0.2c0-0.2,0.2-0.5,0.5-0.5c0.3,0,0.5,0.2,0.5,0.5
						v0.9c0.4,0.3,0.7,0.6,1,0.8c0.8,0.7,1.7,1.3,2.4,2.1c0.9,1,1.4,2.4,1.5,3.8c0,0.2,0.2,2.1-0.7,4.5c-0.1,0.2-0.2,0.5-0.2,0.7h6
						c0.5,0,0.8-0.3,0.8-0.8v-14H12.4z"/>
				</g>
			</g>
		</g>
	</g>
	<g>
		<path class="st0" d="M6.6,39v-6h0.7l4,4.9h-0.4V33h0.9v6h-0.7l-4-4.9h0.4V39H6.6z"/>
		<path class="st0" d="M12.7,39l2.7-6h0.9l2.7,6h-0.9l-2.4-5.5H16L13.6,39H12.7z M13.9,37.5l0.2-0.7h3.4l0.2,0.7H13.9z"/>
		<path class="st0" d="M19.9,39v-6h0.7l2.7,4.5h-0.4l2.7-4.5h0.7l0,6h-0.8l0-4.7h0.2l-2.4,4h-0.4l-2.4-4h0.2V39H19.9z"/>
		<path class="st0" d="M27.2,39l2.7-6h0.9l2.7,6h-0.9l-2.4-5.5h0.3L28.1,39H27.2z M28.4,37.5l0.2-0.7H32l0.2,0.7H28.4z"/>
	</g>
</g>
</svg>
