<?xml version="1.0" encoding="utf-8"?>
<!-- Generator: Adobe Illustrator 25.0.0, SVG Export Plug-In . SVG Version: 6.00 Build 0)  -->
<svg version="1.1" id="Capa_1" xmlns="http://www.w3.org/2000/svg" xmlns:xlink="http://www.w3.org/1999/xlink"
	 viewBox="0 0 2551.2 2551.2" style="enable-background:new 0 0 2551.2 2551.2;" xml:space="preserve">
<style type="text/css">
	.st10{fill:#7bc143;}
	.st1{fill:#FFFFFF;}
</style>
<g>
	<path class="st0" d="M1275.6,0C571.1,0,0,571.1,0,1275.6s571.1,1275.6,1275.6,1275.6c704.5,0,1275.6-571.1,1275.6-1275.6
		S1980.1,0,1275.6,0z M554.3,1838.4l386.2-336.8c-0.2-4.3-0.3-8.6-0.3-12.9v-244.9l-631.7,550.8
		c-83.1-154.5-130.3-331.2-130.3-518.9c0-606,491.3-1097.4,1097.4-1097.4c241.4,0,464.6,77.9,645.8,210l-382.3,333.3l53.5,183.4
		l0.8,3.3c1.6,6.9,3,13.6,4.4,20.3l471.3-410.9c188.3,197,303.9,464,303.9,758c0,205.7-56.7,398.2-155.2,562.8H554.3z"/>
	<g>
		<g>
			<path class="st1" d="M919.3,2214.3h147.1v38.6H961.8v41.1h92.2v38.6h-92.2v74.8h-42.5V2214.3z"/>
			<path class="st1" d="M1100.4,2214.3h88.3c24.6,0,43.6,6.9,56.3,19.6c10.8,10.8,16.6,25.9,16.6,44.1v0.6
				c0,31.2-16.8,50.8-41.4,59.9l47.2,69h-49.7l-41.4-61.8h-33.4v61.8h-42.5V2214.3z M1185.9,2308.1c20.7,0,32.6-11,32.6-27.3v-0.6
				c0-18.2-12.7-27.6-33.4-27.6h-42.2v55.5H1185.9z"/>
			<path class="st1" d="M1299.9,2214.3h145.7v37.8h-103.5v39.2h91.1v37.8h-91.1v40.6H1447v37.8h-147.1V2214.3z"/>
			<path class="st1" d="M1484.8,2214.3h145.7v37.8H1527v39.2h91.1v37.8H1527v40.6h104.9v37.8h-147.1V2214.3z"/>
		</g>
		<g>
			<path class="st1" d="M1099.9,1939h51.4l81.9,193.8H1176l-13.7-34.6h-74.5l-13.7,34.6h-55.8L1099.9,1939z M1146.6,2056.7
				l-21.4-54.4l-21.7,54.4H1146.6z"/>
			<path class="st1" d="M835.5,1940.4H910c68.4,0,108.3,39.6,108.3,95.1v0.5c0,55.5-40.4,96.8-109.4,96.8h-73.4V1940.4z
				 M888.8,1987.4v98.1h21.7c32.2,0,53.3-17.6,53.3-48.7v-0.6c0-30.8-21.2-48.9-53.3-48.9H888.8z"/>
			<path class="st1" d="M1266.5,1940.4h53.3v192.4h-53.3V1940.4z"/>
			<path class="st1" d="M1599,2057.7l-74.2-117h49.7l46.1,77.5l46.9-77.5h48.3l-74.2,116.2v77H1599V2057.7z"/>
			<path class="st1" d="M1355.2,1940.7h88.3c24.6,0,43.6,6.9,56.3,19.6c10.8,10.8,16.6,25.9,16.6,44.1v0.6
				c0,31.2-16.8,50.8-41.4,59.9l47.2,69h-49.7l-41.4-61.8h-33.4v61.8h-42.5V1940.7z M1440.7,2034.5c20.7,0,32.6-11,32.6-27.3v-0.6
				c0-18.2-12.7-27.6-33.4-27.6h-42.2v55.5H1440.7z"/>
		</g>
	</g>
	<path class="st0" d="M1521.3,925l-0.3-1.1l-0.3-1.1l-94.1-322.5c-0.9-3.8-2.2-7.5-3.7-11.1c23-9.2,39.3-31.8,39.3-58.1
		c0-34.6-28-62.6-62.6-62.6H1151c-34.6,0-62.6,28-62.6,62.6c0,26.3,16.3,48.9,39.3,58.1c-1.5,3.6-2.7,7.3-3.7,11.1l-94.1,322.5
		l-0.3,1.1l-0.3,1.1c-18.1,78.1-16.5,140.8-15.2,191.2l0.1,4.1v368.4c0,100,81.4,181.4,181.4,181.4H1355
		c100,0,181.4-81.4,181.4-181.4v-355.4c0.1-5.4,0.3-11.2,0.5-17.3C1538.4,1070.1,1540.4,1007.3,1521.3,925z M1494.5,1132.6v356.1
		c0,77.1-62.5,139.5-139.5,139.5h-159.4c-77.1,0-139.5-62.5-139.5-139.5v-368.9c-0.5-20.2-1.2-42.3-0.6-66.7
		c1.2,0.4,2.4,0.8,3.6,1.2c4,1.4,29.1,8.2,29.9,8.4c4.4,1,51,11.1,92.4,3.7c71.2-12.6,133.6-52.8,197.1-84.6
		c48.5-24.3,87.4-22.1,87.4-22.1c4.6,0.2,18.2,2.3,20.4,2.8C1499.7,1036.3,1495.4,1092.2,1494.5,1132.6z"/>
</g>
</svg>
