<?xml version="1.0" encoding="utf-8"?>
<!-- Generator: Adobe Illustrator 25.0.0, SVG Export Plug-In . SVG Version: 6.00 Build 0)  -->
<svg version="1.1" id="Capa_1" xmlns="http://www.w3.org/2000/svg" xmlns:xlink="http://www.w3.org/1999/xlink"
	 viewBox="0 0 2551.2 2551.2" style="enable-background:new 0 0 2551.2 2551.2;" xml:space="preserve">
<style type="text/css">
	.st10{fill:#7bc143;}
	.st1{fill:#FFFFFF;}
</style>
<g>
	<g>
		<path class="st0" d="M1275.6,0C571.1,0,0,571.1,0,1275.6s571.1,1275.6,1275.6,1275.6c704.5,0,1275.6-571.1,1275.6-1275.6
			S1980.1,0,1275.6,0z M554.3,1838.4l391.3-341.2c-45.8-47.5-81.1-105.1-102.2-169l-534.9,466.3
			c-83.1-154.5-130.3-331.2-130.3-518.9c0-606,491.3-1097.4,1097.4-1097.4c241.4,0,464.6,77.9,645.8,210l-191.5,167v18.7
			c0,82.8-23,160.4-63,226.8h63v12.6l339.2-295.7c188.3,197,303.9,464,303.9,758c0,205.7-56.7,398.2-155.2,562.8H554.3z"/>
		<g id="text">
			<path class="st1" d="M704.2,2035.5v-0.6c0-54.9,42.8-99.9,101.3-99.9c34.8,0,55.7,9.4,75.9,26.5l-26.8,32.3
				c-14.9-12.4-28.1-19.6-50.5-19.6c-30.9,0-55.5,27.3-55.5,60.2v0.5c0,35.3,24.3,61.3,58.5,61.3c15.5,0,29.2-3.9,40-11.6V2057
				h-42.8v-36.7h83.9v83.9c-19.9,16.8-47.2,30.6-82.5,30.6C745.6,2134.8,704.2,2092.6,704.2,2035.5z"/>
			<path class="st1" d="M929.1,1938.4h42.5v154.5h96.3v38.6H929.1V1938.4z"/>
			<path class="st1" d="M1091.4,2048.7v-110.4h42.5v109.3c0,31.5,15.7,47.7,41.7,47.7c25.9,0,41.7-15.7,41.7-46.4v-110.7h42.5v109
				c0,58.5-32.8,87.2-84.7,87.2C1123.1,2134.5,1091.4,2105.6,1091.4,2048.7z"/>
			<path class="st1" d="M1348,1977.5h-58.8v-39.2h160v39.2h-58.8v154H1348V1977.5z"/>
			<path class="st1" d="M1481.9,1938.4h145.7v37.8h-103.5v39.2h91.1v37.8h-91.1v40.6h104.9v37.8h-147.1V1938.4z"/>
			<path class="st1" d="M1666.8,1938.4h39.2l90.5,118.9v-118.9h41.9v193.2h-36.1l-93.5-122.8v122.8h-41.9V1938.4z"/>
			<path class="st1" d="M923.6,2214.3h147.1v38.6H966.1v41.1h92.2v38.6h-92.2v74.8h-42.5V2214.3z"/>
			<path class="st1" d="M1104.6,2214.3h88.3c24.6,0,43.6,6.9,56.3,19.6c10.8,10.8,16.6,25.9,16.6,44.1v0.6
				c0,31.2-16.8,50.8-41.4,59.9l47.2,69h-49.7l-41.4-61.8h-33.4v61.8h-42.5V2214.3z M1190.2,2308.1c20.7,0,32.6-11,32.6-27.3v-0.6
				c0-18.2-12.7-27.6-33.4-27.6h-42.2v55.5H1190.2z"/>
			<path class="st1" d="M1304.1,2214.3h145.7v37.8h-103.5v39.2h91.1v37.8h-91.1v40.6h104.9v37.8h-147.1V2214.3z"/>
			<path class="st1" d="M1489,2214.3h145.7v37.8h-103.5v39.2h91.1v37.8h-91.1v40.6h104.9v37.8H1489V2214.3z"/>
		</g>
		<path class="st0" d="M1648.4,573.9c-184.1,0-335.9,137.9-357.9,316.1V789.7c125.7-141.6,120.7-358.5-14.9-494.1
			c-135.7,135.7-140.6,352.5-15,494.2V890c-22-178.1-173.8-316.1-357.9-316.1c0,198.3,160,359.1,357.9,360.6v263.8
			c-22-178.2-173.8-316.1-357.9-316.1c0,198.3,160,359.1,357.9,360.6v263.8c-22-178.2-173.8-316.1-357.9-316.1v0
			c0,198.2,160,359.1,357.9,360.6v166.6c0,16.5,6.7,26.2,15,26.2c8.2,0,14.9-9.7,14.9-26.2v-166.6
			c197.9-1.5,357.9-162.4,357.9-360.6v0c-184.1,0-335.9,137.9-357.9,316.1v-263.8c197.9-1.5,357.9-162.4,357.9-360.6
			c-184.1,0-335.9,137.9-357.9,316.1V934.5C1488.4,933,1648.4,772.1,1648.4,573.9z"/>
	</g>
</g>
</svg>
