<?xml version="1.0" encoding="utf-8"?>
<svg version="1.1" id="Layer_1" xmlns="http://www.w3.org/2000/svg" xmlns:xlink="http://www.w3.org/1999/xlink" x="0px" y="0px"
	 viewBox="0 0 77.7 20.2" style="enable-background:new 0 0 77.7 20.2;" xml:space="preserve">
<g>
	<path d="M17.8,5.7c1.2,0,2.2,0.2,3,0.7c0.9,0.4,1.5,1.1,2,2c0.5,0.9,0.7,2,0.7,3.4v8.3h-1.9V12c0-1.5-0.4-2.6-1.1-3.4
		c-0.7-0.8-1.7-1.2-3-1.2c-1,0-1.8,0.2-2.5,0.6s-1.3,1-1.7,1.8c-0.4,0.8-0.6,1.7-0.6,2.8v7.5h-1.9V12c0-1.5-0.4-2.6-1.1-3.4
		C9,7.9,8,7.5,6.7,7.5c-1,0-1.8,0.2-2.5,0.6c-0.7,0.4-1.3,1-1.7,1.8c-0.4,0.8-0.6,1.7-0.6,2.8v7.5H0V5.9h1.8v3.8L1.5,9.1
		C2,8,2.7,7.2,3.6,6.6c1-0.6,2.1-0.9,3.4-0.9c1.4,0,2.6,0.3,3.6,1c1,0.7,1.6,1.7,1.9,3.1l-0.8-0.3c0.4-1.2,1.2-2.1,2.2-2.8
		S16.3,5.7,17.8,5.7z"/>
	<path d="M34.8,20.2c-1.5,0-2.8-0.3-3.9-0.9c-1.1-0.6-2-1.5-2.6-2.6c-0.6-1.1-0.9-2.3-0.9-3.8s0.3-2.7,0.9-3.7
		c0.6-1.1,1.4-1.9,2.5-2.6c1.1-0.6,2.2-0.9,3.6-0.9c1.3,0,2.5,0.3,3.6,0.9s1.9,1.5,2.5,2.5c0.6,1.1,0.9,2.4,0.9,3.8
		c0,0.1,0,0.2,0,0.3c0,0.1,0,0.2,0,0.3H28.8v-1.4h11.4l-0.8,0.6c0-1-0.2-1.9-0.7-2.8c-0.4-0.8-1-1.4-1.8-1.9
		c-0.8-0.5-1.6-0.7-2.6-0.7c-1,0-1.9,0.2-2.6,0.7c-0.8,0.5-1.4,1.1-1.8,1.9s-0.7,1.7-0.7,2.8v0.3c0,1.1,0.2,2,0.7,2.9
		c0.5,0.8,1.1,1.5,2,1.9c0.9,0.5,1.8,0.7,2.9,0.7c0.9,0,1.7-0.2,2.4-0.5c0.8-0.3,1.4-0.8,1.9-1.4l1.1,1.2c-0.6,0.8-1.4,1.3-2.4,1.7
		S35.9,20.2,34.8,20.2z"/>
	<path d="M48.7,20.2c-1.1,0-2-0.2-2.8-0.5c-0.8-0.4-1.4-0.8-1.8-1.5c-0.4-0.6-0.6-1.3-0.6-2.2c0-0.7,0.2-1.4,0.5-2
		c0.4-0.6,0.9-1.1,1.7-1.5c0.8-0.4,1.9-0.6,3.2-0.6h4.9v1.4h-4.9c-1.4,0-2.3,0.2-2.9,0.7c-0.5,0.5-0.8,1.1-0.8,1.8
		c0,0.8,0.3,1.5,0.9,2s1.5,0.7,2.7,0.7c1.1,0,2-0.2,2.8-0.7s1.4-1.2,1.7-2.2l0.4,1.3c-0.4,0.9-1,1.7-1.9,2.2
		C51.2,20,50.1,20.2,48.7,20.2z M53.6,20.1V17l-0.1-0.5v-5.3c0-1.2-0.3-2.1-1-2.8s-1.7-1-3-1c-0.9,0-1.8,0.2-2.6,0.5
		c-0.8,0.3-1.5,0.7-2.1,1.2l-0.9-1.4c0.7-0.6,1.6-1.1,2.6-1.4c1-0.3,2.1-0.5,3.2-0.5c1.8,0,3.3,0.5,4.3,1.4s1.5,2.3,1.5,4.2v8.8
		H53.6z"/>
	<path d="M60.7,20.1V0h1.9v20.1H60.7z"/>
	<path d="M71.8,20.2c-1.2,0-2.3-0.2-3.3-0.5c-1-0.3-1.9-0.8-2.5-1.3l0.9-1.5c0.6,0.4,1.3,0.8,2.2,1.1c0.9,0.3,1.9,0.5,2.8,0.5
		c1.4,0,2.3-0.2,2.9-0.6c0.6-0.4,0.9-1,0.9-1.7c0-0.5-0.2-0.9-0.5-1.2c-0.3-0.3-0.8-0.5-1.3-0.7c-0.5-0.2-1.1-0.3-1.8-0.4
		c-0.7-0.1-1.3-0.2-2-0.4c-0.7-0.1-1.3-0.4-1.8-0.6s-1-0.7-1.3-1.2c-0.3-0.5-0.5-1.1-0.5-2c0-0.8,0.2-1.5,0.7-2.1
		c0.4-0.6,1.1-1.1,1.9-1.5c0.8-0.4,1.9-0.5,3.1-0.5c0.9,0,1.8,0.1,2.8,0.4c0.9,0.2,1.7,0.6,2.3,1l-0.8,1.5c-0.6-0.4-1.3-0.7-2-0.9
		c-0.7-0.2-1.4-0.3-2.2-0.3c-1.3,0-2.2,0.2-2.8,0.7c-0.6,0.4-0.9,1-0.9,1.7c0,0.5,0.2,1,0.5,1.3c0.3,0.3,0.8,0.5,1.3,0.7
		c0.6,0.2,1.2,0.3,1.8,0.4c0.7,0.1,1.3,0.2,2,0.4c0.7,0.2,1.3,0.4,1.8,0.6c0.6,0.3,1,0.6,1.3,1.1c0.3,0.5,0.5,1.1,0.5,1.9
		c0,0.8-0.2,1.5-0.7,2.2s-1.1,1.1-2,1.4C74.1,20.1,73.1,20.2,71.8,20.2z"/>
</g>
</svg>
