<?xml version="1.0" encoding="utf-8"?>
<!-- Generator: Adobe Illustrator 25.0.0, SVG Export Plug-In . SVG Version: 6.00 Build 0)  -->
<svg version="1.1" id="Layer_1" xmlns="http://www.w3.org/2000/svg" xmlns:xlink="http://www.w3.org/1999/xlink" x="0px" y="0px"
	 viewBox="0 0 39 39" style="enable-background:new 0 0 39 39;" xml:space="preserve">
<style type="text/css">
	.st0{fill:#A4B0A0;}
</style>
<desc>Created with Sketch.</desc>
<g>
	<g id="ZeriWaste_1_">
		<path class="st0" d="M19.5,0c-8.9,0-16,7.1-16,16s7.1,16,16,16s16-7.1,16-16S28.4,0,19.5,0z M19.5,31.5C11,31.5,4,24.6,4,16
			S11,0.5,19.5,0.5S35,7.4,35,16S28,31.5,19.5,31.5z"/>
		<g>
			<path class="st0" d="M9.5,24.4C9.6,24.4,9.6,24.4,9.5,24.4c0.7,0.5,1.5,0.5,2.3,0.4c0.7-0.1,1.5-0.2,2.1-0.2
				c1.1,0,1.8,0.7,2.5,1.4c0.2,0.2,0.4,0.6,0.6,0.9c0,0-0.1,0-0.1,0.1c-0.1-0.1-0.2-0.1-0.2-0.2c-0.9-0.7-1.9-1.1-3-1.2
				c-0.5,0-1.1,0-1.6,0c-0.4,0-0.7-0.1-1.1-0.1c-0.1,0-0.1,0-0.2,0v0.1c0.3,0.1,0.6,0.2,0.9,0.2c0.6,0.1,1.1,0.1,1.6,0.1
				c1.3,0,2.4,0.6,3.4,1.4c0.4,0.3,0.7,0.7,1.1,1.1c0.1,0.1,0.2,0.2,0.2,0.2c0.1-0.7,0.1-1.5-0.2-2.1c-0.2-0.6-0.7-1.1-1.1-1.4
				c-0.7-0.5-1.6-0.9-2.4-1.4c-1-0.6-2-1.1-2.7-2c-0.8-1-1.2-2.1-1.4-3.4c-0.3-2.1,0.1-4.2,1-6.1c0.2-0.5,0.7-1,1-1.2
				c0,0.1,0.1,0.1,0.1,0.2c0.1,1,0.6,1.8,1.3,2.5c0.7,0.7,1.6,1.3,2.4,1.9c0.8,0.7,1.6,1.2,2.4,2c0.9,1.1,1.4,2.3,1.5,3.7
				c0.1,1.1,0,2.3-0.3,3.4c0,0.1,0,0.1-0.1,0.2c0,0,0,0-0.1,0.1c0-0.2-0.1-0.4-0.1-0.6c-0.2-1.5-0.6-2.9-1.4-4.2
				c-0.6-0.8-1.2-1.5-2-2.1c-0.7-0.7-1.4-1.2-2.1-1.9c-0.6-0.5-1-1.1-1.3-1.7c0-0.1-0.1-0.1-0.2-0.2c0,0.1,0,0.1,0,0.2
				c0.3,1.2,1.1,2.1,2,3c0.7,0.7,1.5,1.4,2.1,2.2c1.1,1.2,1.6,2.7,1.9,4.2c0.3,1.5,0.3,3,0.2,4.5c0,0.2,0,0.4,0,0.7
				c0,0.2-0.2,0.3-0.3,0.3c-0.1,0-0.2-0.1-0.2-0.2c-0.6-0.8-1.1-1-2-0.8c-0.4,0.1-0.8,0.2-1.3,0.3c-1.2,0.3-2.4,0-3.4-0.8
				c-0.8-0.7-1.4-1.6-1.6-2.8C9.5,24.7,9.5,24.5,9.5,24.4z"/>
			<g>
				<path class="st0" d="M25.5,2.5H12.9c-0.5,0-0.8,0.3-0.8,0.8v7.1h14.3V3.3C26.3,2.9,26,2.5,25.5,2.5z M14.7,8.1
					c0,0.2-0.2,0.5-0.5,0.5c-0.2,0-0.5-0.2-0.5-0.5V5c0-0.2,0.2-0.5,0.5-0.5c0.2,0,0.5,0.2,0.5,0.5V8.1z"/>
				<path class="st0" d="M24.3,28.1v1h1.3v-1.9H19c-0.1,0.3-0.2,0.7-0.3,0.9H24.3z"/>
				<g>
					<path class="st0" d="M12,11c0,0,0.7,1.6,1.2,2.1c0.2,0.1,0.2,0.2,0.4,0.3v-0.2c0-0.2,0.2-0.5,0.5-0.5s0.5,0.2,0.5,0.5v1
						c0.4,0.3,0.7,0.6,1.1,0.8c0.9,0.7,1.8,1.4,2.5,2.2c1,1.1,1.5,2.5,1.6,4c0,0.2,0.2,2.2-0.7,4.8c-0.1,0.2-0.2,0.5-0.2,0.7h6.4
						c0.5,0,0.8-0.3,0.8-0.8V11H12z"/>
				</g>
			</g>
		</g>
	</g>
	<g>
		<g>
			<path class="st0" d="M7.3,38.9v-5.8h0.4l4.1,5.3h-0.2v-5.3H12v5.8h-0.3l-4.2-5.3h0.2v5.3H7.3z"/>
			<path class="st0" d="M13.1,38.9l2.7-5.8h0.4l2.7,5.8h-0.5l-2.5-5.5h0.2l-2.5,5.5H13.1z M14.1,37.3l0.1-0.4h3.5l0.1,0.4H14.1z"/>
			<path class="st0" d="M19.9,38.9v-5.8h0.4l2.7,4.7h-0.2l2.7-4.7h0.3l0,5.8h-0.4l0-5.2h0.1L23,38.1h-0.2l-2.6-4.4h0.1v5.2H19.9z"/>
			<path class="st0" d="M26.9,38.9l2.7-5.8H30l2.7,5.8h-0.5l-2.5-5.5h0.2l-2.5,5.5H26.9z M27.9,37.3l0.1-0.4h3.5l0.1,0.4H27.9z"/>
		</g>
	</g>
</g>
</svg>
