<?xml version="1.0" encoding="utf-8"?>
<!-- Generator: Adobe Illustrator 25.0.0, SVG Export Plug-In . SVG Version: 6.00 Build 0)  -->
<svg version="1.1" id="Layer_1" xmlns="http://www.w3.org/2000/svg" xmlns:xlink="http://www.w3.org/1999/xlink" x="0px" y="0px"
	 viewBox="0 0 39 39" style="enable-background:new 0 0 39 39;" xml:space="preserve">
<style type="text/css">
	.st0{fill:#7BC143;}
</style>
<desc>Created with Sketch.</desc>
<g id="ZeriWaste">
	<path class="st0" d="M19.5,0C8.7,0,0,8.7,0,19.5S8.7,39,19.5,39S39,30.3,39,19.5S30.3,0,19.5,0z M19.5,38.4
		C9.1,38.4,0.6,30,0.6,19.5S9.1,0.6,19.5,0.6S38.4,9,38.4,19.5S29.9,38.4,19.5,38.4z"/>
	<g>
		<path class="st0" d="M7.3,29.7c0.1,0,0.1,0,0.1,0c0.8,0.6,1.7,0.6,2.7,0.5c0.9-0.1,1.8-0.2,2.6-0.2c1.3,0,2.2,0.8,3,1.7
			c0.3,0.3,0.5,0.7,0.7,1.1c0,0-0.1,0-0.1,0.1c-0.1-0.1-0.2-0.1-0.3-0.2c-1.1-0.9-2.3-1.4-3.7-1.5c-0.6,0-1.3,0-1.9,0
			c-0.5,0-0.9-0.1-1.4-0.1c-0.1,0-0.1,0-0.2,0c0,0,0,0.1,0,0.1c0.4,0.1,0.7,0.2,1.1,0.3c0.7,0.1,1.3,0.1,2,0.1
			c1.6,0,2.9,0.7,4.1,1.7c0.5,0.4,0.8,0.9,1.3,1.3c0.1,0.1,0.2,0.2,0.3,0.3c0.1-0.9,0.1-1.8-0.3-2.6c-0.3-0.7-0.8-1.3-1.4-1.7
			c-0.9-0.6-1.9-1.1-2.9-1.7c-1.2-0.7-2.4-1.4-3.3-2.5c-1-1.2-1.5-2.6-1.7-4.2c-0.4-2.6,0.1-5.1,1.2-7.4c0.3-0.6,0.8-1.2,1.2-1.5
			c0,0.1,0.1,0.1,0.1,0.2c0.1,1.2,0.7,2.2,1.6,3c0.9,0.8,1.9,1.6,2.9,2.3c1,0.8,2,1.5,2.9,2.5c1.1,1.3,1.7,2.8,1.8,4.5
			c0.1,1.4,0,2.8-0.4,4.2c0,0.1,0,0.1-0.1,0.2c0,0,0,0-0.1,0.1c0-0.3-0.1-0.5-0.1-0.7c-0.2-1.8-0.7-3.5-1.7-5.1
			c-0.7-1-1.5-1.8-2.4-2.6c-0.9-0.8-1.7-1.5-2.6-2.3c-0.7-0.6-1.2-1.3-1.6-2.1c0-0.1-0.1-0.1-0.2-0.2c0,0.1,0,0.1,0,0.2
			c0.4,1.5,1.4,2.6,2.4,3.6c0.9,0.9,1.8,1.7,2.6,2.7c1.3,1.5,1.9,3.3,2.3,5.1c0.4,1.8,0.4,3.6,0.3,5.5c0,0.3,0,0.5,0,0.8
			c0,0.3-0.2,0.4-0.4,0.4c-0.1,0-0.2-0.1-0.3-0.2c-0.7-1-1.3-1.2-2.4-1c-0.5,0.1-1,0.3-1.6,0.4c-1.5,0.4-2.9,0-4.1-1
			c-1-0.9-1.7-2-2-3.4C7.3,30.1,7.3,29.9,7.3,29.7z"/>
		<g>
			<path class="st0" d="M26.8,3.1H11.5c-0.6,0-1,0.4-1,1v8.6h17.4V4C27.8,3.5,27.4,3.1,26.8,3.1z M13.7,9.9c0,0.3-0.3,0.6-0.6,0.6
				c-0.3,0-0.6-0.3-0.6-0.6V6.1c0-0.3,0.3-0.6,0.6-0.6c0.3,0,0.6,0.3,0.6,0.6V9.9z"/>
			<path class="st0" d="M25.4,34.3v1.2H27v-2.3h-8.1c-0.1,0.4-0.3,0.9-0.4,1.1H25.4z"/>
			<g>
				<path class="st0" d="M10.4,13.4c0,0,0.8,1.9,1.5,2.6c0.2,0.1,0.3,0.3,0.5,0.4v-0.2c0-0.3,0.3-0.6,0.6-0.6c0.3,0,0.6,0.3,0.6,0.6
					v1.2c0.5,0.4,0.9,0.7,1.4,1c1.1,0.8,2.2,1.7,3.1,2.7c1.2,1.4,1.8,3.1,2,4.9c0,0.3,0.2,2.7-0.8,5.9c-0.1,0.3-0.2,0.6-0.3,0.9h7.8
					c0.6,0,1-0.4,1-1V13.4H10.4z"/>
			</g>
		</g>
	</g>
</g>
</svg>
