<?xml version="1.0" encoding="utf-8"?>
<!-- Generator: Adobe Illustrator 25.0.0, SVG Export Plug-In . SVG Version: 6.00 Build 0)  -->
<svg version="1.1" id="Capa_1" xmlns="http://www.w3.org/2000/svg" xmlns:xlink="http://www.w3.org/1999/xlink"
	 viewBox="0 0 2551.2 2551.2" style="enable-background:new 0 0 2551.2 2551.2;" xml:space="preserve">
<style type="text/css">
	.st10{fill:#7bc143;}
	.st1{fill:#FFFFFF;}
</style>
<g>
	<g>
		<path class="st0" d="M2551.2,1275.6c0,704.5-571.1,1275.6-1275.6,1275.6C571.1,2551.2,0,1980.1,0,1275.6S571.1,0,1275.6,0
			C1980.1,0,2551.2,571.1,2551.2,1275.6z"/>
		<path class="st1" d="M2217.8,1838.4c98.5-164.6,155.2-357,155.2-562.8c0-606-491.3-1097.4-1097.4-1097.4
			c-606.1,0-1097.4,491.3-1097.4,1097.4c0,205.7,56.7,398.2,155.2,562.8H2217.8z"/>
		<g>
			<path class="st1" d="M802.5,2103.1h59.4l43.7,121.8l44-121.8h58.3l-78.1,193.8h-49.5L802.5,2103.1z"/>
			<path class="st1" d="M1019.7,2103.1h141.1v45.1h-93v29.4h84.2v42.1h-84.2v30.5h94.2v45.4h-142.4V2103.1z"/>
			<path class="st1" d="M1181.8,2199.8v-0.6c0-54.9,42.8-99.9,101.3-99.9c34.8,0,55.7,9.4,75.9,26.5l-26.8,32.3
				c-14.9-12.4-28.1-19.6-50.5-19.6c-30.9,0-55.5,27.3-55.5,60.2v0.5c0,35.3,24.3,61.3,58.5,61.3c15.5,0,29.2-3.9,40-11.6v-27.6
				H1282v-36.7h83.9v83.9c-19.9,16.8-47.2,30.6-82.5,30.6C1223.2,2299.2,1181.8,2257,1181.8,2199.8z"/>
			<path class="st1" d="M1577,2102.7h39.2l90.5,118.9v-118.9h41.9v193.2h-36.1l-93.5-122.8v122.8H1577V2102.7z"/>
			<path class="st1" d="M1451.5,2099.4h35.6l75.2,196.1H1522l-16-43.7h-74.2l-16,43.7h-39.4L1451.5,2099.4z M1492.1,2214l-23.3-63.1
				l-23.3,63.1H1492.1z"/>
		</g>
	</g>
	<g>
		<path class="st0" d="M1886.5,680.4c-212.6,174.5-389.3,144.1-590.6,311c-250.2,207.4-193.4,693.7-174.1,804.1
			c26.2-99.9,81.5-268.3,181.1-401.5c114.5-153.3,257-224.1,311.9-259c54.9-35,99-86.1,99-86.1s-33.9,68.5-120.4,126.5
			c-75.5,50.7-203.4,109.3-316.6,320.6c-63.7,119-100.8,241.3-116.2,313.6c35.5-26.2,78.2-54.8,144.2-103.7
			c298.1-220.8,553.7-162.8,671.6-591.5c58.4-212.3,8.5-515.9,8.5-515.9S1957.9,621.8,1886.5,680.4z"/>
		<path class="st0" d="M797.9,569.9c-20.2,194.1-124.5,267-142.8,451.7c-22.7,229.5,248.7,446.5,313.5,492.6
			c-36.6-63.5-92.8-176-109.1-292.9c-18.7-134.5,17.8-241.3,28.1-286.4c10.2-45,7-92.9,7-92.9s17.1,51.4,2.4,123.9
			c-12.8,63.3-48.1,156.7,0.3,319.8c27.2,91.8,69.6,172.1,97.9,216.2c4.9-31,12.1-66.7,21-124.3c40.2-260.2,198.1-358.5,43.6-633.7
			c-76.5-136.3-253.2-264.6-253.2-264.6S804.6,504.7,797.9,569.9z"/>
	</g>
</g>
</svg>
