<?xml version="1.0" encoding="utf-8"?>
<svg version="1.1" xmlns="http://www.w3.org/2000/svg" xmlns:xlink="http://www.w3.org/1999/xlink"
	 viewBox="0 0 2551.2 2551.2" style="enable-background:new 0 0 2551.2 2551.2;" xml:space="preserve">
<style type="text/css">
	.st10{fill:#7bc143;}
	.st1{fill:#FFFFFF;}
</style>
<g>
	<path class="st10" d="M1275.6,0C571.1,0,0,571.1,0,1275.6s571.1,1275.6,1275.6,1275.6c704.5,0,1275.6-571.1,1275.6-1275.6
		S1980.1,0,1275.6,0z M333.4,1838.4c-98.5-164.6-155.2-357-155.2-562.8c0-606,491.3-1097.4,1097.4-1097.4
		c606.1,0,1097.4,491.3,1097.4,1097.4c0,205.7-56.7,398.2-155.2,562.8H333.4z"/>
	<g transform="matrix(0.1,0,0,-0.1,0,362)">
		<path class="st10" d="M18321.8-1315c-299.5-78.6-932.3-220.9-1404.1-314.5c-1201.9-235.9-1392.9-307-1928.3-703.9
			c-760.1-565.4-1291.8-1658.7-1288-2650.9c3.7-378.2,59.9-647.8,123.6-576.6c15,18.7,67.4,127.3,112.3,239.6
			c228.4,550.4,891.1,1389.1,1456.5,1842.2c288.3,232.1,868.7,460.5,868.7,340.7c0-41.2-198.4-288.3-434.3-535.4
			c-220.9-235.9-295.8-333.2-711.4-936.1c-430.6-632.8-992.2-1763.5-1370.4-2770.7c-366.9-977.2-636.5-1756-816.2-2340.1
			c-303.3-999.7-576.6-1789.7-625.3-1804.7c-59.9-22.5-224.7,513-569.1,1842.2c-535.4,2081.8-763.8,2796.9-1310.5,4099.9
			C10050.8-4696,9556.6-3984.6,8553.1-2895c-550.4,602.8-1332.9,1179.4-1804.7,1336.7c-307,104.8-333.2,52.4-101.1-205.9
			C7740.6-2996.1,8373.4-3909.7,9043.6-5209C9609-6313.5,9998.4-7410.6,10706-9926.7c179.7-644,576.6-2284,703.9-2920.5
			c142.3-707.7,299.5-1400.3,340.7-1508.9c15-33.7,71.1-78.6,127.3-93.6c127.3-33.7,741.4-33.7,872.4,0
			c194.7,56.2,232.1,209.7,501.7,1977c179.7,1194.4,333.2,1909.6,640.3,2976.7c520.4,1819.7,1074.6,3152.6,1411.6,3369.8
			c48.7,30,288.3,89.9,539.2,131c973.5,161,1756,591.6,2310.2,1276.8c370.7,456.8,468,793.8,561.6,1917
			c48.7,595.3,78.6,763.8,191,1119.5c71.1,232.1,119.8,441.8,112.3,468C18992-1146.5,18932.1-1154,18321.8-1315z"/>
	</g>
	<g>
		<path class="st1" d="M1204.6,1990.5H1146v-39h159.5v39h-58.6v153.4h-42.3V1990.5z"/>
		<path class="st1" d="M1518.7,1951.5h88.3c24.6,0,43.6,6.9,56.3,19.6c10.8,10.8,16.6,25.9,16.6,44.1v0.6
			c0,31.2-16.8,50.8-41.4,59.9l47.2,69H1636l-41.4-61.8h-33.4v61.8h-42.5V1951.5z M1604.3,2045.3c20.7,0,32.6-11,32.6-27.3v-0.6
			c0-18.2-12.7-27.6-33.4-27.6h-42.2v55.5H1604.3z"/>
		<path class="st1" d="M1715.4,1951.8h42.4v192.4h-42.4V1951.8z"/>
		<path class="st1" d="M379.1,1951.2h59.4l43.7,121.8l44-121.8h58.3l-78.1,193.8h-49.5L379.1,1951.2z"/>
		<path class="st1" d="M758.4,2047.9v-0.6c0-54.9,42.8-99.9,101.3-99.9c34.8,0,55.7,9.4,75.9,26.5l-26.8,32.3
			c-14.9-12.4-28.1-19.6-50.5-19.6c-30.9,0-55.5,27.3-55.5,60.2v0.5c0,35.3,24.3,61.3,58.5,61.3c15.5,0,29.2-3.9,40-11.6v-27.6
			h-42.8v-36.7h83.9v83.9c-19.9,16.8-47.2,30.6-82.5,30.6C799.8,2147.3,758.4,2105,758.4,2047.9z"/>
		<path class="st1" d="M1964.8,1950.8h39.2l90.5,118.9v-118.9h41.9v193.2h-36.1l-93.5-122.8v122.8h-41.9V1950.8z"/>
		<path class="st1" d="M1847.7,1947.5h35.6l75.2,196.1h-40.4l-16-43.7h-74.2l-16,43.7h-39.4L1847.7,1947.5z M1888.3,2062.1
			l-23.3-63.1l-23.3,63.1H1888.3z"/>
		<path class="st1" d="M600.9,1951.5h145.7v37.8H643.1v39.2h91.1v37.8h-91.1v40.6h104.9v37.8H600.9V1951.5z"/>
		<path class="st1" d="M969.5,1951.5h145.7v37.8h-103.5v39.2h91.1v37.8h-91.1v40.6h104.9v37.8H969.5V1951.5z"/>
		<path class="st1" d="M1329.2,1951.5h145.7v37.8h-103.5v39.2h91.1v37.8h-91.1v40.6h104.9v37.8h-147.1V1951.5z"/>
	</g>
</g>
</svg>
